<svg xmlns="http://www.w3.org/2000/svg" viewBox="0 0 400 240" preserveAspectRatio="xMidYMid slice">
  <defs>
    <linearGradient id="bg" x1="0" y1="0" x2="1" y2="1">
      <stop offset="0" stop-color="#f4fbff"/>
      <stop offset="1" stop-color="#fbe9c0"/>
    </linearGradient>
    <linearGradient id="awnA" x1="0" y1="0" x2="0" y2="1">
      <stop offset="0" stop-color="#f7d774"/>
      <stop offset="1" stop-color="#e0a920"/>
    </linearGradient>
    <linearGradient id="wall" x1="0" y1="0" x2="0" y2="1">
      <stop offset="0" stop-color="#ffffff"/>
      <stop offset="1" stop-color="#f5ead0"/>
    </linearGradient>
    <linearGradient id="glass" x1="0" y1="0" x2="1" y2="1">
      <stop offset="0" stop-color="#dff1fb"/>
      <stop offset="1" stop-color="#b9dcf1"/>
    </linearGradient>
    <radialGradient id="coin" cx="0.35" cy="0.3" r="0.8">
      <stop offset="0" stop-color="#fff0b0"/>
      <stop offset="0.6" stop-color="#f2c542"/>
      <stop offset="1" stop-color="#c78f10"/>
    </radialGradient>
    <filter id="sh" x="-20%" y="-20%" width="140%" height="150%">
      <feDropShadow dx="0" dy="6" stdDeviation="6" flood-color="#8a6d1f" flood-opacity="0.25"/>
    </filter>
  </defs>
  <rect width="400" height="240" fill="url(#bg)"/>
  <circle cx="70" cy="40" r="80" fill="#ffffff" opacity="0.6"/>
  <circle cx="350" cy="210" r="90" fill="#ffffff" opacity="0.45"/>
  <rect x="0" y="200" width="400" height="40" fill="#efe0b8" opacity="0.7"/>
  <g filter="url(#sh)">
    <rect x="110" y="92" width="180" height="108" rx="4" fill="url(#wall)"/>
    <rect x="128" y="124" width="78" height="62" rx="4" fill="url(#glass)"/>
    <path d="M128 168 L168 124 M150 186 L206 128" stroke="#ffffff" stroke-width="5" opacity="0.6"/>
    <rect x="226" y="124" width="46" height="76" rx="4" fill="#e0a920"/>
    <rect x="232" y="130" width="34" height="64" rx="3" fill="#f7d774"/>
    <circle cx="260" cy="164" r="3" fill="#9a6a05"/>
    <path d="M100 92 H300 L290 62 H110 Z" fill="url(#awnA)"/>
    <g fill="#ffffff" opacity="0.9">
      <path d="M120 62 H150 L146 92 H114 Z"/>
      <path d="M180 62 H210 L210 92 H174 Z"/>
      <path d="M240 62 H270 L276 92 H240 Z"/>
    </g>
    <path d="M100 92 q12 16 25 0 q12 16 25 0 q12 16 25 0 q12 16 25 0 q12 16 25 0 q12 16 25 0 q12 16 25 0 q12 16 25 0" fill="url(#awnA)"/>
  </g>
  <g filter="url(#sh)">
    <circle cx="326" cy="86" r="30" fill="url(#coin)"/>
    <circle cx="326" cy="86" r="22" fill="none" stroke="#b7810d" stroke-width="2" opacity="0.6"/>
    <path d="M314 98 L322 88 L329 94 L340 76" fill="none" stroke="#9a6a05" stroke-width="4" stroke-linecap="round" stroke-linejoin="round"/>
  </g>
  <g fill="#3aa86a">
    <rect x="52" y="162" width="6" height="38" rx="3"/>
    <ellipse cx="55" cy="154" rx="18" ry="22"/>
  </g>
  <circle cx="90" cy="130" r="4" fill="#f2c542"/>
  <circle cx="352" cy="140" r="3" fill="#f2c542" opacity="0.8"/>
  <circle cx="300" cy="36" r="4" fill="#f2c542" opacity="0.8"/>
</svg>
